<svg width="200" height="74" viewBox="0 0 200 74" fill="none" xmlns="http://www.w3.org/2000/svg">
<rect width="82.8338" height="52.0128" fill="url(#paint0_linear_7_82)"/>
<path d="M199.8 70.2999H99.9V73.9999H199.8V70.2999Z" fill="white"/>
<path d="M35.0614 17.8517H18.8484V61.0041H35.0614C46.9591 61.0041 55.4046 51.3256 55.4046 39.4279C55.4046 27.5302 46.9591 17.8517 35.0614 17.8517ZM35.0614 57.9218H22.1156V20.934H35.0614C45.233 20.934 52.199 29.1946 52.199 39.4279C52.199 49.6612 45.233 57.9218 35.0614 57.9218ZM76.8922 29.5028C67.4604 29.5028 60.9258 36.5305 60.9258 45.5925C60.9258 54.9011 67.6453 61.6822 77.1388 61.6822C83.2418 61.6822 88.0502 58.9081 90.5777 54.7162L87.8653 53.1134C86.0775 56.3806 82.2555 58.7232 77.2005 58.7232C70.1728 58.7232 64.8712 54.1614 64.1315 47.1953H92.0572C92.0572 46.7022 92.1189 46.209 92.1189 45.7158C92.1189 37.2703 86.2625 29.5028 76.8922 29.5028ZM76.8922 32.4619C82.9336 32.4619 88.2352 36.6538 88.9133 44.1747H64.1315C64.7479 37.3319 69.8646 32.4619 76.8922 32.4619Z" fill="white"/>
<path d="M125.074 38.5313C127.441 36.4792 128.873 33.6186 128.873 30.0119C128.873 22.4876 122.708 17.575 115.112 17.575H98.05V61.1044H116.357C124.14 61.1044 130.429 56.0674 130.429 48.3565C130.429 43.9413 128.312 40.5834 125.074 38.5313ZM115.112 26.9027C117.415 26.9027 118.91 28.5195 118.91 30.7581C118.91 32.9968 117.353 34.6136 115.112 34.6136H108.013V26.9027H115.112ZM116.357 51.7766H108.013V43.4439H116.357C118.848 43.4439 120.467 45.185 120.467 47.6102C120.467 50.0355 118.848 51.7766 116.357 51.7766Z" fill="url(#paint1_linear_7_82)"/>
<path d="M150.628 61.975C159.781 61.975 167.129 54.8237 167.129 45.5581C167.129 36.2926 159.781 29.1413 150.628 29.1413C141.474 29.1413 134.127 36.2926 134.127 45.5581C134.127 54.8237 141.474 61.975 150.628 61.975ZM150.628 52.896C146.58 52.896 143.467 49.9733 143.467 45.5581C143.467 41.143 146.58 38.2203 150.628 38.2203C154.675 38.2203 157.789 41.143 157.789 45.5581C157.789 49.9733 154.675 52.896 150.628 52.896Z" fill="url(#paint2_linear_7_82)"/>
<path d="M199.8 61.1044L188.654 45.3094L199.426 30.0119H188.716L183.299 37.7229L177.882 30.0119H167.172L177.944 45.3094L166.798 61.1044H177.508L183.299 52.896L189.09 61.1044H199.8Z" fill="url(#paint3_linear_7_82)"/>
<defs>
<linearGradient id="paint0_linear_7_82" x1="1.23972e-06" y1="52.0128" x2="125.011" y2="24.6012" gradientUnits="userSpaceOnUse">
<stop stop-color="#983C94"/>
<stop offset="0.471875" stop-color="#DC3049"/>
<stop offset="1" stop-color="#ED944B"/>
</linearGradient>
<linearGradient id="paint1_linear_7_82" x1="209.227" y1="40.753" x2="81.5617" y2="73.4373" gradientUnits="userSpaceOnUse">
<stop stop-color="#EA864A"/>
<stop offset="0.497917" stop-color="#DC3349"/>
<stop offset="1" stop-color="#A03A8A"/>
</linearGradient>
<linearGradient id="paint2_linear_7_82" x1="209.227" y1="40.753" x2="81.5617" y2="73.4373" gradientUnits="userSpaceOnUse">
<stop stop-color="#EA864A"/>
<stop offset="0.497917" stop-color="#DC3349"/>
<stop offset="1" stop-color="#A03A8A"/>
</linearGradient>
<linearGradient id="paint3_linear_7_82" x1="209.227" y1="40.753" x2="81.5617" y2="73.4373" gradientUnits="userSpaceOnUse">
<stop stop-color="#EA864A"/>
<stop offset="0.497917" stop-color="#DC3349"/>
<stop offset="1" stop-color="#A03A8A"/>
</linearGradient>
</defs>
</svg>
